<svg width="120" height="40" viewBox="0 0 120 40" fill="none" xmlns="http://www.w3.org/2000/svg">
  <!-- B letter -->
  <path d="M10 8h12c4 0 7 2 7 6 0 2-1 4-3 5 3 1 4 3 4 6 0 4-3 7-8 7H10V8zm6 10h5c2 0 3-1 3-3s-1-3-3-3h-5v6zm0 10h6c2 0 4-1 4-3s-2-3-4-3h-6v6z" fill="#10b981"/>
  
  <!-- z letter -->
  <path d="M42 26h12v6H36V26l12-12H36V8h18v6L42 26z" fill="#10b981"/>
  
  <!-- Decorative element -->
  <circle cx="65" cy="20" r="3" fill="#10b981" opacity="0.6"/>
  <circle cx="73" cy="20" r="2" fill="#10b981" opacity="0.4"/>
</svg>
