<svg width="140" height="48" viewBox="0 0 140 48" fill="none" xmlns="http://www.w3.org/2000/svg">
  <!-- B letter -->
  <path d="M12 10h14c5 0 8 2.5 8 7 0 2.5-1.2 4.8-3.5 6 3.5 1.2 5 3.5 5 7 0 5-3.5 8-9 8H12V10zm7 12h6c2.5 0 3.5-1.2 3.5-3.5s-1-3.5-3.5-3.5h-6v7zm0 12h7c2.5 0 4.5-1.2 4.5-3.5s-2-3.5-4.5-3.5h-7v7z" fill="#10b981"/>
  
  <!-- z letter -->
  <path d="M50 30h14v8H42V30l14-14H42V8h22v8L50 30z" fill="#10b981"/>
  
  <!-- Decorative dots -->
  <circle cx="78" cy="24" r="3.5" fill="#10b981" opacity="0.7"/>
  <circle cx="88" cy="24" r="2.5" fill="#10b981" opacity="0.5"/>
  <circle cx="96" cy="24" r="1.5" fill="#10b981" opacity="0.3"/>
</svg>
